<svg xmlns="http://www.w3.org/2000/svg" width="87" height="24" viewBox="0 0 87 24" fill="none"><path d="M26.5847 21.1144C21.5071 21.1144 18.9238 18.1451 18.9238 14.4334C18.9238 10.0388 22.4276 6.05996 27.5052 6.05996C32.5827 6.05996 35.166 9.02929 35.166 12.7409C35.166 17.1355 31.6622 21.1144 26.5847 21.1144ZM26.7925 16.3932C28.5741 16.3932 29.7025 14.7897 29.7025 13.0082C29.7025 11.5829 28.782 10.7812 27.2973 10.7812C25.5157 10.7812 24.3874 12.3846 24.3874 14.1662C24.3874 15.5915 25.3079 16.3932 26.7925 16.3932Z" fill="#ffffff"/><path d="M40.5752 20.7581H35.2305L39.5954 0.95274H44.9402L40.5752 20.7581Z" fill="#ffffff"/><path fill-rule="evenodd" clip-rule="evenodd" d="M10.8275 21.1144C9.19444 21.1144 7.59098 20.5206 6.67052 19.2437L6.34581 20.7496L0.351562 23.934L0.998668 20.7496L5.364 0.95274H10.7088L9.16474 7.93064C10.4118 6.56477 11.5699 6.05996 13.0545 6.05996C16.2614 6.05996 18.3993 8.16816 18.3993 12.0283C18.3993 16.0072 15.9348 21.1144 10.8275 21.1144ZM12.8764 13.1567C12.8764 14.9976 11.5699 16.3932 9.87737 16.3932C8.92716 16.3932 8.06609 16.0369 7.50189 15.4133L8.33332 11.7611C8.95686 11.1375 9.66949 10.7812 10.5009 10.7812C11.7777 10.7812 12.8764 11.7314 12.8764 13.1567Z" fill="#ffffff"/><path d="M50.5002 21.1144C47.4122 21.1144 45.2149 19.9861 45.2149 17.4919C45.2149 17.284 45.2446 16.7792 45.3336 16.3635L46.4916 11.0484H44.1162L45.1555 6.41629H47.5309L48.392 2.4968L54.3755 0.0250969L53.7369 2.50284L52.8757 6.41629H55.7856L54.7464 11.0484H51.8364L51.0644 14.5522C51.005 14.8195 50.9753 15.1164 50.9753 15.2352C50.9753 15.9181 51.391 16.3932 52.3115 16.3932C52.5788 16.3932 52.9648 16.3041 53.0538 16.2447V20.5206C52.4897 20.9066 51.4801 21.1144 50.5002 21.1144Z" fill="#ffffff"/><path d="M57.0913 21.4359C56.3664 21.4359 55.7891 20.8318 55.7891 20.1068C55.7891 19.261 56.5141 18.5495 57.3598 18.5495C58.0849 18.5495 58.6622 19.1536 58.6622 19.8786C58.6622 20.7244 57.937 21.4359 57.0913 21.4359Z" fill="#ffffff"/><path d="M66.1966 21.2614H63.7799L64.5315 17.8513C64.5586 17.7305 64.6121 17.5157 64.6121 17.3547C64.6121 16.9116 64.223 16.7505 63.8334 16.7505C63.3096 16.7505 62.9476 17.019 62.6921 17.2473L61.8063 21.2614H59.3896L60.8262 14.777H63.2429L63.0685 15.5154C63.5381 15.0858 64.1286 14.6159 65.1088 14.6159C66.4648 14.6159 67.2435 15.3543 67.2435 16.3209C67.2435 16.4283 67.2032 16.7236 67.1761 16.8445L66.1966 21.2614Z" fill="#ffffff"/><path d="M71.2092 21.4225C69.1148 21.4225 67.665 20.3753 67.665 18.469C67.665 16.4014 69.2495 14.6159 71.5183 14.6159C73.1292 14.6159 74.5519 15.5959 74.5519 17.5694C74.5519 18.0125 74.4719 18.5227 74.4046 18.7643H70.0547V18.7777C70.0547 18.8717 70.4443 19.5832 71.3836 19.5832C71.8941 19.5832 72.4984 19.4624 72.7937 19.261L73.5321 20.8318C72.8742 21.2479 71.9879 21.4225 71.2092 21.4225ZM70.2832 17.2338H72.4178V17.1936C72.4178 17.0056 72.1894 16.4551 71.4239 16.4551C70.7799 16.4551 70.3637 16.9519 70.2832 17.2338Z" fill="#ffffff"/><path d="M82.9834 21.2614H80.3521L80.0833 17.6365L78.2439 21.2614H75.6131L75.1699 14.777H77.586L77.6534 18.3481L79.5866 14.777H81.7483L82.0839 18.3481L83.7351 14.777H86.2991L82.9834 21.2614Z" fill="#ffffff"/></svg>